<?xml version="1.0" encoding="UTF-8" standalone="no"?>
<!DOCTYPE svg PUBLIC "-//W3C//DTD SVG 1.1//EN"
 "http://www.w3.org/Graphics/SVG/1.1/DTD/svg11.dtd">
<!-- Generated by graphviz version 2.34.0 (20170831.0311)
 -->
<!-- Title: G Pages: 1 -->
<svg width="1116pt" height="2830pt"
 viewBox="0.00 0.00 1116.00 2830.00" xmlns="http://www.w3.org/2000/svg" xmlns:xlink="http://www.w3.org/1999/xlink">
<g id="graph0" class="graph" transform="scale(1 1) rotate(0) translate(4 2826)">
<title>G</title>
<polygon fill="white" stroke="white" points="-4,4 -4,-2826 1112,-2826 1112,4 -4,4"/>
<g id="clust1" class="cluster"><title>cluster_Global</title>
<path fill="none" stroke="gray" d="M20,-152C20,-152 1088,-152 1088,-152 1094,-152 1100,-158 1100,-164 1100,-164 1100,-2802 1100,-2802 1100,-2808 1094,-2814 1088,-2814 1088,-2814 20,-2814 20,-2814 14,-2814 8,-2808 8,-2802 8,-2802 8,-164 8,-164 8,-158 14,-152 20,-152"/>
<text text-anchor="middle" x="554" y="-2800.1" font-family="Times,serif" font-size="11.00" fill="gray">Global</text>
</g>
<g id="clust2" class="cluster"><title>cluster_\PG</title>
<path fill="none" stroke="gray" d="M28,-160C28,-160 1080,-160 1080,-160 1086,-160 1092,-166 1092,-172 1092,-172 1092,-2773 1092,-2773 1092,-2779 1086,-2785 1080,-2785 1080,-2785 28,-2785 28,-2785 22,-2785 16,-2779 16,-2773 16,-2773 16,-172 16,-172 16,-166 22,-160 28,-160"/>
<text text-anchor="middle" x="554" y="-2771.1" font-family="Times,serif" font-size="11.00" fill="gray">PG</text>
</g>
<g id="clust3" class="cluster"><title>cluster_\PG\MSF</title>
<path fill="none" stroke="gray" d="M36,-168C36,-168 1072,-168 1072,-168 1078,-168 1084,-174 1084,-180 1084,-180 1084,-2744 1084,-2744 1084,-2750 1078,-2756 1072,-2756 1072,-2756 36,-2756 36,-2756 30,-2756 24,-2750 24,-2744 24,-2744 24,-180 24,-180 24,-174 30,-168 36,-168"/>
<text text-anchor="middle" x="554" y="-2742.1" font-family="Times,serif" font-size="11.00" fill="gray">MSF</text>
</g>
<g id="clust4" class="cluster"><title>cluster_\PG\MSF\Base</title>
<path fill="none" stroke="gray" d="M44,-222C44,-222 496,-222 496,-222 502,-222 508,-228 508,-234 508,-234 508,-445 508,-445 508,-451 502,-457 496,-457 496,-457 44,-457 44,-457 38,-457 32,-451 32,-445 32,-445 32,-234 32,-234 32,-228 38,-222 44,-222"/>
<text text-anchor="middle" x="270" y="-443.1" font-family="Times,serif" font-size="11.00" fill="gray">Base</text>
</g>
<g id="clust5" class="cluster"><title>cluster_\PG\MSF\Client</title>
<path fill="none" stroke="gray" d="M400,-2517C400,-2517 516,-2517 516,-2517 522,-2517 528,-2523 528,-2529 528,-2529 528,-2715 528,-2715 528,-2721 522,-2727 516,-2727 516,-2727 400,-2727 400,-2727 394,-2727 388,-2721 388,-2715 388,-2715 388,-2529 388,-2529 388,-2523 394,-2517 400,-2517"/>
<text text-anchor="middle" x="458" y="-2713.1" font-family="Times,serif" font-size="11.00" fill="gray">Client</text>
</g>
<g id="clust6" class="cluster"><title>cluster_\PG\MSF\Client\Http</title>
<path fill="none" stroke="gray" d="M434,-2625C434,-2625 482,-2625 482,-2625 488,-2625 494,-2631 494,-2637 494,-2637 494,-2686 494,-2686 494,-2692 488,-2698 482,-2698 482,-2698 434,-2698 434,-2698 428,-2698 422,-2692 422,-2686 422,-2686 422,-2637 422,-2637 422,-2631 428,-2625 434,-2625"/>
<text text-anchor="middle" x="458" y="-2684.1" font-family="Times,serif" font-size="11.00" fill="gray">Http</text>
</g>
<g id="clust7" class="cluster"><title>cluster_\PG\MSF\Console</title>
<path fill="none" stroke="gray" d="M677,-2004C677,-2004 753,-2004 753,-2004 759,-2004 765,-2010 765,-2016 765,-2016 765,-2119 765,-2119 765,-2125 759,-2131 753,-2131 753,-2131 677,-2131 677,-2131 671,-2131 665,-2125 665,-2119 665,-2119 665,-2016 665,-2016 665,-2010 671,-2004 677,-2004"/>
<text text-anchor="middle" x="715" y="-2117.1" font-family="Times,serif" font-size="11.00" fill="gray">Console</text>
</g>
<g id="clust8" class="cluster"><title>cluster_\PG\MSF\Controllers</title>
<path fill="none" stroke="gray" d="M420,-2139C420,-2139 743,-2139 743,-2139 749,-2139 755,-2145 755,-2151 755,-2151 755,-2362 755,-2362 755,-2368 749,-2374 743,-2374 743,-2374 420,-2374 420,-2374 414,-2374 408,-2368 408,-2362 408,-2362 408,-2151 408,-2151 408,-2145 414,-2139 420,-2139"/>
<text text-anchor="middle" x="581.5" y="-2360.1" font-family="Times,serif" font-size="11.00" fill="gray">Controllers</text>
</g>
<g id="clust9" class="cluster"><title>cluster_\PG\MSF\Coroutine</title>
<path fill="none" stroke="gray" d="M435,-1491C435,-1491 1027,-1491 1027,-1491 1033,-1491 1039,-1497 1039,-1503 1039,-1503 1039,-1984 1039,-1984 1039,-1990 1033,-1996 1027,-1996 1027,-1996 435,-1996 435,-1996 429,-1996 423,-1990 423,-1984 423,-1984 423,-1503 423,-1503 423,-1497 429,-1491 435,-1491"/>
<text text-anchor="middle" x="731" y="-1982.1" font-family="Times,serif" font-size="11.00" fill="gray">Coroutine</text>
</g>
<g id="clust10" class="cluster"><title>cluster_\PG\MSF\Helpers</title>
<path fill="none" stroke="gray" d="M962,-176C962,-176 1016,-176 1016,-176 1022,-176 1028,-182 1028,-188 1028,-188 1028,-237 1028,-237 1028,-243 1022,-249 1016,-249 1016,-249 962,-249 962,-249 956,-249 950,-243 950,-237 950,-237 950,-188 950,-188 950,-182 956,-176 962,-176"/>
<text text-anchor="middle" x="989" y="-235.1" font-family="Times,serif" font-size="11.00" fill="gray">Helpers</text>
</g>
<g id="clust11" class="cluster"><title>cluster_\PG\MSF\Models</title>
<path fill="none" stroke="gray" d="M435,-1302C435,-1302 481,-1302 481,-1302 487,-1302 493,-1308 493,-1314 493,-1314 493,-1363 493,-1363 493,-1369 487,-1375 481,-1375 481,-1375 435,-1375 435,-1375 429,-1375 423,-1369 423,-1363 423,-1363 423,-1314 423,-1314 423,-1308 429,-1302 435,-1302"/>
<text text-anchor="middle" x="458" y="-1361.1" font-family="Times,serif" font-size="11.00" fill="gray">Models</text>
</g>
<g id="clust12" class="cluster"><title>cluster_\PG\MSF\Pack</title>
<path fill="none" stroke="gray" d="M692,-1302C692,-1302 1037,-1302 1037,-1302 1043,-1302 1049,-1308 1049,-1314 1049,-1314 1049,-1471 1049,-1471 1049,-1477 1043,-1483 1037,-1483 1037,-1483 692,-1483 692,-1483 686,-1483 680,-1477 680,-1471 680,-1471 680,-1314 680,-1314 680,-1308 686,-1302 692,-1302"/>
<text text-anchor="middle" x="864.5" y="-1469.1" font-family="Times,serif" font-size="11.00" fill="gray">Pack</text>
</g>
<g id="clust13" class="cluster"><title>cluster_\PG\MSF\Pools</title>
<path fill="none" stroke="gray" d="M424,-1005C424,-1005 1057,-1005 1057,-1005 1063,-1005 1069,-1011 1069,-1017 1069,-1017 1069,-1282 1069,-1282 1069,-1288 1063,-1294 1057,-1294 1057,-1294 424,-1294 424,-1294 418,-1294 412,-1288 412,-1282 412,-1282 412,-1017 412,-1017 412,-1011 418,-1005 424,-1005"/>
<text text-anchor="middle" x="740.5" y="-1280.1" font-family="Times,serif" font-size="11.00" fill="gray">Pools</text>
</g>
<g id="clust14" class="cluster"><title>cluster_\PG\MSF\Process</title>
<path fill="none" stroke="gray" d="M674,-816C674,-816 1017,-816 1017,-816 1023,-816 1029,-822 1029,-828 1029,-828 1029,-985 1029,-985 1029,-991 1023,-997 1017,-997 1017,-997 674,-997 674,-997 668,-997 662,-991 662,-985 662,-985 662,-828 662,-828 662,-822 668,-816 674,-816"/>
<text text-anchor="middle" x="845.5" y="-983.1" font-family="Times,serif" font-size="11.00" fill="gray">Process</text>
</g>
<g id="clust15" class="cluster"><title>cluster_\PG\MSF\Proxy</title>
<path fill="none" stroke="gray" d="M691,-627C691,-627 1064,-627 1064,-627 1070,-627 1076,-633 1076,-639 1076,-639 1076,-796 1076,-796 1076,-802 1070,-808 1064,-808 1064,-808 691,-808 691,-808 685,-808 679,-802 679,-796 679,-796 679,-639 679,-639 679,-633 685,-627 691,-627"/>
<text text-anchor="middle" x="877.5" y="-794.1" font-family="Times,serif" font-size="11.00" fill="gray">Proxy</text>
</g>
<g id="clust16" class="cluster"><title>cluster_\PG\MSF\Rest</title>
<path fill="none" stroke="gray" d="M420,-2382C420,-2382 496,-2382 496,-2382 502,-2382 508,-2388 508,-2394 508,-2394 508,-2497 508,-2497 508,-2503 502,-2509 496,-2509 496,-2509 420,-2509 420,-2509 414,-2509 408,-2503 408,-2497 408,-2497 408,-2394 408,-2394 408,-2388 414,-2382 420,-2382"/>
<text text-anchor="middle" x="458" y="-2495.1" font-family="Times,serif" font-size="11.00" fill="gray">Rest</text>
</g>
<g id="clust17" class="cluster"><title>cluster_\PG\MSF\Route</title>
<path fill="none" stroke="gray" d="M434,-546C434,-546 1023,-546 1023,-546 1029,-546 1035,-552 1035,-558 1035,-558 1035,-607 1035,-607 1035,-613 1029,-619 1023,-619 1023,-619 434,-619 434,-619 428,-619 422,-613 422,-607 422,-607 422,-558 422,-558 422,-552 428,-546 434,-546"/>
<text text-anchor="middle" x="728.5" y="-605.1" font-family="Times,serif" font-size="11.00" fill="gray">Route</text>
</g>
<g id="clust18" class="cluster"><title>cluster_\PG\MSF\Tasks</title>
<path fill="none" stroke="gray" d="M424,-465C424,-465 1031,-465 1031,-465 1037,-465 1043,-471 1043,-477 1043,-477 1043,-526 1043,-526 1043,-532 1037,-538 1031,-538 1031,-538 424,-538 424,-538 418,-538 412,-532 412,-526 412,-526 412,-477 412,-477 412,-471 418,-465 424,-465"/>
<text text-anchor="middle" x="727.5" y="-524.1" font-family="Times,serif" font-size="11.00" fill="gray">Tasks</text>
</g>
<!-- \\PG\\MSF\\Base\\AOPFactory -->
<g id="node1" class="node"><title>\\PG\\MSF\\Base\\AOPFactory</title>
<polygon fill="none" stroke="black" points="500,-320 416,-320 416,-284 500,-284 500,-320"/>
<text text-anchor="middle" x="458" y="-298.6" font-family="Courier,monospace" font-size="11.00">AOPFactory</text>
</g>
<!-- \\PG\\AOP\\Factory -->
<g id="node62" class="node"><title>\\PG\\AOP\\Factory</title>
<ellipse fill="none" stroke="black" cx="245" cy="-126" rx="78.472" ry="18"/>
<text text-anchor="middle" x="245" y="-121.4" font-family="Times,serif" font-size="14.00" fill="gray">\PG\AOP\Factory</text>
</g>
<!-- \\PG\\MSF\\Base\\AOPFactory&#45;&gt;\\PG\\AOP\\Factory -->
<g id="edge1" class="edge"><title>\\PG\\MSF\\Base\\AOPFactory&#45;&gt;\\PG\\AOP\\Factory</title>
<path fill="none" stroke="black" d="M415.786,-291.069C405.95,-287.121 395.997,-281.879 388,-275 344.828,-237.864 365.645,-202.84 324,-164 316.32,-156.837 307.038,-150.757 297.596,-145.702"/>
<polygon fill="none" stroke="black" points="299.05,-142.516 288.542,-141.167 295.915,-148.775 299.05,-142.516"/>
</g>
<!-- \\PG\\MSF\\Base\\Child -->
<g id="node2" class="node"><title>\\PG\\MSF\\Base\\Child</title>
<polygon fill="none" stroke="black" points="94,-347 40,-347 40,-311 94,-311 94,-347"/>
<text text-anchor="middle" x="67" y="-325.6" font-family="Courier,monospace" font-size="11.00">Child</text>
</g>
<!-- \\PG\\MSF\\Base\\Core -->
<g id="node3" class="node"><title>\\PG\\MSF\\Base\\Core</title>
<polygon fill="none" stroke="black" points="272,-428 218,-428 218,-392 272,-392 272,-428"/>
<text text-anchor="middle" x="245" y="-406.6" font-family="Courier,monospace" font-size="11.00">Core</text>
</g>
<!-- \\PG\\MSF\\Base\\Core&#45;&gt;\\PG\\MSF\\Base\\Child -->
<g id="edge2" class="edge"><title>\\PG\\MSF\\Base\\Core&#45;&gt;\\PG\\MSF\\Base\\Child</title>
<path fill="none" stroke="black" d="M217.756,-404.451C202.333,-400.738 182.657,-395.208 166,-388 143.759,-378.375 120.453,-364.52 102.152,-352.654"/>
<polygon fill="none" stroke="black" points="103.872,-349.596 93.5962,-347.017 100.021,-355.441 103.872,-349.596"/>
</g>
<!-- \\PG\\MSF\\Base\\Input -->
<g id="node4" class="node"><title>\\PG\\MSF\\Base\\Input</title>
<polygon fill="none" stroke="black" points="485,-428 431,-428 431,-392 485,-392 485,-428"/>
<text text-anchor="middle" x="458" y="-406.6" font-family="Courier,monospace" font-size="11.00">Input</text>
</g>
<!-- \\PG\\MSF\\Base\\Input&#45;&gt;\\PG\\MSF\\Base\\Core -->
<g id="edge3" class="edge"><title>\\PG\\MSF\\Base\\Input&#45;&gt;\\PG\\MSF\\Base\\Core</title>
<path fill="none" stroke="black" d="M430.703,-410C393.327,-410 324.696,-410 282.436,-410"/>
<polygon fill="none" stroke="black" points="282.296,-406.5 272.296,-410 282.296,-413.5 282.296,-406.5"/>
</g>
<!-- \\PG\\MSF\\Base\\Output -->
<g id="node5" class="node"><title>\\PG\\MSF\\Base\\Output</title>
<polygon fill="none" stroke="black" points="486,-374 430,-374 430,-338 486,-338 486,-374"/>
<text text-anchor="middle" x="458" y="-352.6" font-family="Courier,monospace" font-size="11.00">Output</text>
</g>
<!-- \\PG\\MSF\\Base\\Output&#45;&gt;\\PG\\MSF\\Base\\Core -->
<g id="edge4" class="edge"><title>\\PG\\MSF\\Base\\Output&#45;&gt;\\PG\\MSF\\Base\\Core</title>
<path fill="none" stroke="black" d="M429.847,-362.949C392.11,-372.607 323.734,-390.106 281.845,-400.826"/>
<polygon fill="none" stroke="black" points="280.875,-397.462 272.055,-403.332 282.611,-404.243 280.875,-397.462"/>
</g>
<!-- \\PG\\MSF\\Base\\Pool -->
<g id="node6" class="node"><title>\\PG\\MSF\\Base\\Pool</title>
<polygon fill="none" stroke="black" points="485,-266 431,-266 431,-230 485,-230 485,-266"/>
<text text-anchor="middle" x="458" y="-244.6" font-family="Courier,monospace" font-size="11.00">Pool</text>
</g>
<!-- \\PG\\MSF\\Client\\Http\\Client -->
<g id="node7" class="node"><title>\\PG\\MSF\\Client\\Http\\Client</title>
<polygon fill="none" stroke="black" points="486,-2669 430,-2669 430,-2633 486,-2633 486,-2669"/>
<text text-anchor="middle" x="458" y="-2647.6" font-family="Courier,monospace" font-size="11.00">Client</text>
</g>
<!-- \\PG\\MSF\\Client\\Http\\Client&#45;&gt;\\PG\\MSF\\Base\\Core -->
<g id="edge5" class="edge"><title>\\PG\\MSF\\Client\\Http\\Client&#45;&gt;\\PG\\MSF\\Base\\Core</title>
<path fill="none" stroke="black" d="M429.929,-2649.51C415.156,-2647.18 397.906,-2641.68 388,-2629 246.572,-2447.91 245.385,-684.276 245.911,-438.402"/>
<polygon fill="none" stroke="black" points="249.412,-438.16 245.936,-428.152 242.412,-438.143 249.412,-438.16"/>
</g>
<!-- \\PG\\MSF\\Client\\ConcurrentClient -->
<g id="node8" class="node"><title>\\PG\\MSF\\Client\\ConcurrentClient</title>
<polygon fill="none" stroke="black" points="519.5,-2615 396.5,-2615 396.5,-2579 519.5,-2579 519.5,-2615"/>
<text text-anchor="middle" x="458" y="-2593.6" font-family="Courier,monospace" font-size="11.00">ConcurrentClient</text>
</g>
<!-- \\PG\\MSF\\Client\\RpcClient -->
<g id="node9" class="node"><title>\\PG\\MSF\\Client\\RpcClient</title>
<polygon fill="none" stroke="black" points="496,-2561 420,-2561 420,-2525 496,-2525 496,-2561"/>
<text text-anchor="middle" x="458" y="-2539.6" font-family="Courier,monospace" font-size="11.00">RpcClient</text>
</g>
<!-- \\PG\\MSF\\Client\\RpcClient&#45;&gt;\\PG\\MSF\\Base\\Core -->
<g id="edge6" class="edge"><title>\\PG\\MSF\\Client\\RpcClient&#45;&gt;\\PG\\MSF\\Base\\Core</title>
<path fill="none" stroke="black" d="M419.745,-2535.05C407.701,-2530.59 395.526,-2523.68 388,-2513 262.757,-2335.34 247.675,-675.855 246.154,-438.267"/>
<polygon fill="none" stroke="black" points="249.653,-438.018 246.092,-428.039 242.653,-438.061 249.653,-438.018"/>
</g>
<!-- \\PG\\MSF\\Console\\Controller -->
<g id="node10" class="node"><title>\\PG\\MSF\\Console\\Controller</title>
<polygon fill="none" stroke="black" points="756.5,-2102 673.5,-2102 673.5,-2066 756.5,-2066 756.5,-2102"/>
<text text-anchor="middle" x="715" y="-2080.6" font-family="Courier,monospace" font-size="11.00">Controller</text>
</g>
<!-- \\PG\\MSF\\Controllers\\Controller -->
<g id="node13" class="node"><title>\\PG\\MSF\\Controllers\\Controller</title>
<polygon fill="none" stroke="black" points="499.5,-2210 416.5,-2210 416.5,-2174 499.5,-2174 499.5,-2210"/>
<text text-anchor="middle" x="458" y="-2188.6" font-family="Courier,monospace" font-size="11.00">Controller</text>
</g>
<!-- \\PG\\MSF\\Console\\Controller&#45;&gt;\\PG\\MSF\\Controllers\\Controller -->
<g id="edge7" class="edge"><title>\\PG\\MSF\\Console\\Controller&#45;&gt;\\PG\\MSF\\Controllers\\Controller</title>
<path fill="none" stroke="black" d="M673.295,-2100.91C649.56,-2110.8 619.06,-2123.55 592,-2135 564.512,-2146.64 533.889,-2159.75 508.962,-2170.46"/>
<polygon fill="none" stroke="black" points="507.51,-2167.28 499.706,-2174.44 510.276,-2173.71 507.51,-2167.28"/>
</g>
<!-- \\PG\\MSF\\Console\\Request -->
<g id="node11" class="node"><title>\\PG\\MSF\\Console\\Request</title>
<polygon fill="none" stroke="black" points="746,-2048 684,-2048 684,-2012 746,-2012 746,-2048"/>
<text text-anchor="middle" x="715" y="-2026.6" font-family="Courier,monospace" font-size="11.00">Request</text>
</g>
<!-- \\PG\\MSF\\Controllers\\Bench -->
<g id="node12" class="node"><title>\\PG\\MSF\\Controllers\\Bench</title>
<polygon fill="none" stroke="black" points="742,-2291 688,-2291 688,-2255 742,-2255 742,-2291"/>
<text text-anchor="middle" x="715" y="-2269.6" font-family="Courier,monospace" font-size="11.00">Bench</text>
</g>
<!-- \\PG\\MSF\\Controllers\\Bench&#45;&gt;\\PG\\MSF\\Controllers\\Controller -->
<g id="edge8" class="edge"><title>\\PG\\MSF\\Controllers\\Bench&#45;&gt;\\PG\\MSF\\Controllers\\Controller</title>
<path fill="none" stroke="black" d="M687.966,-2268.55C663.038,-2263.98 624.519,-2256.12 592,-2246 563.516,-2237.13 532.589,-2224.75 507.733,-2214.08"/>
<polygon fill="none" stroke="black" points="509.088,-2210.85 498.521,-2210.09 506.303,-2217.28 509.088,-2210.85"/>
</g>
<!-- \\PG\\MSF\\Controllers\\Controller&#45;&gt;\\PG\\MSF\\Base\\Core -->
<g id="edge9" class="edge"><title>\\PG\\MSF\\Controllers\\Controller&#45;&gt;\\PG\\MSF\\Base\\Core</title>
<path fill="none" stroke="black" d="M448.732,-2173.93C433.807,-2140.43 402.568,-2066.07 388,-2000 251.334,-1380.23 245.546,-596.946 245.845,-438.639"/>
<polygon fill="none" stroke="black" points="249.346,-438.342 245.875,-428.332 242.346,-438.321 249.346,-438.342"/>
</g>
<!-- \\PG\\MSF\\Controllers\\Monitor -->
<g id="node14" class="node"><title>\\PG\\MSF\\Controllers\\Monitor</title>
<polygon fill="none" stroke="black" points="747,-2237 683,-2237 683,-2201 747,-2201 747,-2237"/>
<text text-anchor="middle" x="715" y="-2215.6" font-family="Courier,monospace" font-size="11.00">Monitor</text>
</g>
<!-- \\PG\\MSF\\Controllers\\Monitor&#45;&gt;\\PG\\MSF\\Controllers\\Controller -->
<g id="edge10" class="edge"><title>\\PG\\MSF\\Controllers\\Monitor&#45;&gt;\\PG\\MSF\\Controllers\\Controller</title>
<path fill="none" stroke="black" d="M682.987,-2215.72C639.933,-2211.16 561.528,-2202.86 509.847,-2197.38"/>
<polygon fill="none" stroke="black" points="510.198,-2193.9 499.885,-2196.33 509.461,-2200.86 510.198,-2193.9"/>
</g>
<!-- \\PG\\MSF\\Controllers\\Rest -->
<g id="node15" class="node"><title>\\PG\\MSF\\Controllers\\Rest</title>
<polygon fill="none" stroke="black" points="742,-2345 688,-2345 688,-2309 742,-2309 742,-2345"/>
<text text-anchor="middle" x="715" y="-2323.6" font-family="Courier,monospace" font-size="11.00">Rest</text>
</g>
<!-- \\PG\\MSF\\Rest\\Controller -->
<g id="node49" class="node"><title>\\PG\\MSF\\Rest\\Controller</title>
<polygon fill="none" stroke="black" points="499.5,-2480 416.5,-2480 416.5,-2444 499.5,-2444 499.5,-2480"/>
<text text-anchor="middle" x="458" y="-2458.6" font-family="Courier,monospace" font-size="11.00">Controller</text>
</g>
<!-- \\PG\\MSF\\Controllers\\Rest&#45;&gt;\\PG\\MSF\\Rest\\Controller -->
<g id="edge11" class="edge"><title>\\PG\\MSF\\Controllers\\Rest&#45;&gt;\\PG\\MSF\\Rest\\Controller</title>
<path fill="none" stroke="black" d="M687.9,-2343.87C652.535,-2366.33 587.022,-2406.52 528,-2435 521.928,-2437.93 515.451,-2440.79 508.989,-2443.49"/>
<polygon fill="none" stroke="black" points="507.525,-2440.31 499.58,-2447.32 510.162,-2446.79 507.525,-2440.31"/>
</g>
<!-- \\PG\\MSF\\Controllers\\Rpc -->
<g id="node16" class="node"><title>\\PG\\MSF\\Controllers\\Rpc</title>
<polygon fill="none" stroke="black" points="742,-2183 688,-2183 688,-2147 742,-2147 742,-2183"/>
<text text-anchor="middle" x="715" y="-2161.6" font-family="Courier,monospace" font-size="11.00">Rpc</text>
</g>
<!-- \\PG\\MSF\\Controllers\\Rpc&#45;&gt;\\PG\\MSF\\Controllers\\Controller -->
<g id="edge12" class="edge"><title>\\PG\\MSF\\Controllers\\Rpc&#45;&gt;\\PG\\MSF\\Controllers\\Controller</title>
<path fill="none" stroke="black" d="M687.671,-2167.79C645.83,-2172.22 563.42,-2180.94 509.805,-2186.62"/>
<polygon fill="none" stroke="black" points="509.391,-2183.14 499.815,-2187.68 510.128,-2190.11 509.391,-2183.14"/>
</g>
<!-- \\PG\\MSF\\Coroutine\\Base -->
<g id="node17" class="node"><title>\\PG\\MSF\\Coroutine\\Base</title>
<polygon fill="none" stroke="black" points="756.5,-1805 673.5,-1805 673.5,-1769 756.5,-1769 756.5,-1805"/>
<text text-anchor="start" x="681.5" y="-1790.1" font-family="Courier,monospace" font-size="11.00">«abstract»</text>
<text text-anchor="start" x="701.5" y="-1777.1" font-family="Courier,monospace" font-size="11.00">Base</text>
</g>
<!-- \\PG\\MSF\\Coroutine\\IBase -->
<g id="node27" class="node"><title>\\PG\\MSF\\Coroutine\\IBase</title>
<polygon fill="none" stroke="black" points="485,-1805 431,-1805 431,-1769 485,-1769 485,-1805"/>
<text text-anchor="middle" x="458" y="-1783.6" font-family="Courier,monospace" font-size="11.00">IBase</text>
</g>
<!-- \\PG\\MSF\\Coroutine\\Base&#45;&gt;\\PG\\MSF\\Coroutine\\IBase -->
<g id="edge13" class="edge"><title>\\PG\\MSF\\Coroutine\\Base&#45;&gt;\\PG\\MSF\\Coroutine\\IBase</title>
<path fill="none" stroke="black" stroke-dasharray="1,5" d="M673.313,-1787C624.16,-1787 542.226,-1787 495.185,-1787"/>
<polygon fill="none" stroke="black" points="495.139,-1783.5 485.139,-1787 495.139,-1790.5 495.139,-1783.5"/>
</g>
<!-- \\PG\\MSF\\Coroutine\\CException -->
<g id="node18" class="node"><title>\\PG\\MSF\\Coroutine\\CException</title>
<polygon fill="none" stroke="black" points="1030.5,-1643 947.5,-1643 947.5,-1607 1030.5,-1607 1030.5,-1643"/>
<text text-anchor="middle" x="989" y="-1621.6" font-family="Courier,monospace" font-size="11.00">CException</text>
</g>
<!-- \\Exception -->
<g id="node63" class="node"><title>\\Exception</title>
<ellipse fill="none" stroke="black" cx="715" cy="-126" rx="52.1486" ry="18"/>
<text text-anchor="middle" x="715" y="-121.4" font-family="Times,serif" font-size="14.00" fill="gray">\Exception</text>
</g>
<!-- \\PG\\MSF\\Coroutine\\CException&#45;&gt;\\Exception -->
<g id="edge14" class="edge"><title>\\PG\\MSF\\Coroutine\\CException&#45;&gt;\\Exception</title>
<path fill="none" stroke="black" d="M947.214,-1620.24C933.217,-1616.48 918.86,-1609.8 910,-1598 718.468,-1342.81 1033.5,-416.158 838,-164 823.436,-145.215 799.692,-135.498 777.004,-130.549"/>
<polygon fill="none" stroke="black" points="777.512,-127.083 767.034,-128.651 776.203,-133.96 777.512,-127.083"/>
</g>
<!-- \\PG\\MSF\\Coroutine\\CNull -->
<g id="node19" class="node"><title>\\PG\\MSF\\Coroutine\\CNull</title>
<polygon fill="none" stroke="black" points="1016,-1913 962,-1913 962,-1877 1016,-1877 1016,-1913"/>
<text text-anchor="middle" x="989" y="-1891.6" font-family="Courier,monospace" font-size="11.00">CNull</text>
</g>
<!-- \\PG\\MSF\\Coroutine\\CTask -->
<g id="node20" class="node"><title>\\PG\\MSF\\Coroutine\\CTask</title>
<polygon fill="none" stroke="black" points="1016,-1751 962,-1751 962,-1715 1016,-1715 1016,-1751"/>
<text text-anchor="middle" x="989" y="-1729.6" font-family="Courier,monospace" font-size="11.00">CTask</text>
</g>
<!-- \\PG\\MSF\\Coroutine\\CTask&#45;&gt;\\PG\\MSF\\Coroutine\\Base -->
<g id="edge15" class="edge"><title>\\PG\\MSF\\Coroutine\\CTask&#45;&gt;\\PG\\MSF\\Coroutine\\Base</title>
<path fill="none" stroke="black" d="M961.919,-1738.18C917.139,-1747.07 824.869,-1765.39 766.958,-1776.88"/>
<polygon fill="none" stroke="black" points="766.044,-1773.5 756.917,-1778.88 767.407,-1780.36 766.044,-1773.5"/>
</g>
<!-- \\PG\\MSF\\Coroutine\\Dns -->
<g id="node21" class="node"><title>\\PG\\MSF\\Coroutine\\Dns</title>
<polygon fill="none" stroke="black" points="1016,-1697 962,-1697 962,-1661 1016,-1661 1016,-1697"/>
<text text-anchor="middle" x="989" y="-1675.6" font-family="Courier,monospace" font-size="11.00">Dns</text>
</g>
<!-- \\PG\\MSF\\Coroutine\\Dns&#45;&gt;\\PG\\MSF\\Coroutine\\Base -->
<g id="edge16" class="edge"><title>\\PG\\MSF\\Coroutine\\Dns&#45;&gt;\\PG\\MSF\\Coroutine\\Base</title>
<path fill="none" stroke="black" d="M961.854,-1687.6C946.638,-1692.71 927.138,-1699.46 910,-1706 860.643,-1724.83 805.085,-1748.26 766.115,-1765.07"/>
<polygon fill="none" stroke="black" points="764.367,-1762.01 756.578,-1769.19 767.146,-1768.43 764.367,-1762.01"/>
</g>
<!-- \\PG\\MSF\\Coroutine\\Http -->
<g id="node22" class="node"><title>\\PG\\MSF\\Coroutine\\Http</title>
<polygon fill="none" stroke="black" points="1016,-1967 962,-1967 962,-1931 1016,-1931 1016,-1967"/>
<text text-anchor="middle" x="989" y="-1945.6" font-family="Courier,monospace" font-size="11.00">Http</text>
</g>
<!-- \\PG\\MSF\\Coroutine\\Http&#45;&gt;\\PG\\MSF\\Coroutine\\Base -->
<g id="edge17" class="edge"><title>\\PG\\MSF\\Coroutine\\Http&#45;&gt;\\PG\\MSF\\Coroutine\\Base</title>
<path fill="none" stroke="black" d="M961.981,-1941.96C946.459,-1937.28 926.604,-1930.45 910,-1922 847.608,-1890.26 782.219,-1840.87 745.535,-1811.45"/>
<polygon fill="none" stroke="black" points="747.696,-1808.7 737.718,-1805.14 743.297,-1814.14 747.696,-1808.7"/>
</g>
<!-- \\PG\\MSF\\Coroutine\\MySql -->
<g id="node23" class="node"><title>\\PG\\MSF\\Coroutine\\MySql</title>
<polygon fill="none" stroke="black" points="1016,-1859 962,-1859 962,-1823 1016,-1823 1016,-1859"/>
<text text-anchor="middle" x="989" y="-1837.6" font-family="Courier,monospace" font-size="11.00">MySql</text>
</g>
<!-- \\PG\\MSF\\Coroutine\\MySql&#45;&gt;\\PG\\MSF\\Coroutine\\Base -->
<g id="edge18" class="edge"><title>\\PG\\MSF\\Coroutine\\MySql&#45;&gt;\\PG\\MSF\\Coroutine\\Base</title>
<path fill="none" stroke="black" d="M961.919,-1835.82C917.139,-1826.93 824.869,-1808.61 766.958,-1797.12"/>
<polygon fill="none" stroke="black" points="767.407,-1793.64 756.917,-1795.12 766.044,-1800.5 767.407,-1793.64"/>
</g>
<!-- \\PG\\MSF\\Coroutine\\Redis -->
<g id="node24" class="node"><title>\\PG\\MSF\\Coroutine\\Redis</title>
<polygon fill="none" stroke="black" points="1016,-1805 962,-1805 962,-1769 1016,-1769 1016,-1805"/>
<text text-anchor="middle" x="989" y="-1783.6" font-family="Courier,monospace" font-size="11.00">Redis</text>
</g>
<!-- \\PG\\MSF\\Coroutine\\Redis&#45;&gt;\\PG\\MSF\\Coroutine\\Base -->
<g id="edge19" class="edge"><title>\\PG\\MSF\\Coroutine\\Redis&#45;&gt;\\PG\\MSF\\Coroutine\\Base</title>
<path fill="none" stroke="black" d="M961.919,-1787C917.139,-1787 824.869,-1787 766.958,-1787"/>
<polygon fill="none" stroke="black" points="766.917,-1783.5 756.917,-1787 766.917,-1790.5 766.917,-1783.5"/>
</g>
<!-- \\PG\\MSF\\Coroutine\\Scheduler -->
<g id="node25" class="node"><title>\\PG\\MSF\\Coroutine\\Scheduler</title>
<polygon fill="none" stroke="black" points="1027,-1589 951,-1589 951,-1553 1027,-1553 1027,-1589"/>
<text text-anchor="middle" x="989" y="-1567.6" font-family="Courier,monospace" font-size="11.00">Scheduler</text>
</g>
<!-- \\PG\\MSF\\Coroutine\\Task -->
<g id="node26" class="node"><title>\\PG\\MSF\\Coroutine\\Task</title>
<polygon fill="none" stroke="black" points="1016,-1535 962,-1535 962,-1499 1016,-1499 1016,-1535"/>
<text text-anchor="middle" x="989" y="-1513.6" font-family="Courier,monospace" font-size="11.00">Task</text>
</g>
<!-- \\PG\\MSF\\Helpers\\Context -->
<g id="node28" class="node"><title>\\PG\\MSF\\Helpers\\Context</title>
<polygon fill="none" stroke="black" points="1020,-220 958,-220 958,-184 1020,-184 1020,-220"/>
<text text-anchor="middle" x="989" y="-198.6" font-family="Courier,monospace" font-size="11.00">Context</text>
</g>
<!-- \\PG\\Context\\AbstractContext -->
<g id="node64" class="node"><title>\\PG\\Context\\AbstractContext</title>
<ellipse fill="none" stroke="black" cx="715" cy="-18" rx="122.521" ry="18"/>
<text text-anchor="middle" x="715" y="-13.4" font-family="Times,serif" font-size="14.00" fill="gray">\PG\Context\AbstractContext</text>
</g>
<!-- \\PG\\MSF\\Helpers\\Context&#45;&gt;\\PG\\Context\\AbstractContext -->
<g id="edge20" class="edge"><title>\\PG\\MSF\\Helpers\\Context&#45;&gt;\\PG\\Context\\AbstractContext</title>
<path fill="none" stroke="black" d="M976.21,-183.87C953.631,-150.707 900.898,-80.4307 838,-45 830.088,-40.5433 821.502,-36.8222 812.673,-33.7153"/>
<polygon fill="none" stroke="black" points="813.611,-30.3398 803.019,-30.5792 811.448,-36.9974 813.611,-30.3398"/>
</g>
<!-- \\PG\\MSF\\Models\\Model -->
<g id="node29" class="node"><title>\\PG\\MSF\\Models\\Model</title>
<polygon fill="none" stroke="black" points="485,-1346 431,-1346 431,-1310 485,-1310 485,-1346"/>
<text text-anchor="middle" x="458" y="-1324.6" font-family="Courier,monospace" font-size="11.00">Model</text>
</g>
<!-- \\PG\\MSF\\Models\\Model&#45;&gt;\\PG\\MSF\\Base\\Core -->
<g id="edge22" class="edge"><title>\\PG\\MSF\\Models\\Model&#45;&gt;\\PG\\MSF\\Base\\Core</title>
<path fill="none" stroke="black" d="M430.871,-1323.1C416.037,-1318.95 398.406,-1311.42 388,-1298 279.942,-1158.66 252.021,-573.862 246.947,-438.193"/>
<polygon fill="none" stroke="black" points="250.444,-438.044 246.584,-428.177 243.448,-438.297 250.444,-438.044"/>
</g>
<!-- \\PG\\MSF\\Pack\\JsonPack -->
<g id="node30" class="node"><title>\\PG\\MSF\\Pack\\JsonPack</title>
<polygon fill="none" stroke="black" points="1023.5,-1454 954.5,-1454 954.5,-1418 1023.5,-1418 1023.5,-1454"/>
<text text-anchor="middle" x="989" y="-1432.6" font-family="Courier,monospace" font-size="11.00">JsonPack</text>
</g>
<!-- \\PG\\MSF\\Pack\\IPack -->
<g id="node33" class="node"><title>\\PG\\MSF\\Pack\\IPack</title>
<polygon fill="none" stroke="black" points="742,-1400 688,-1400 688,-1364 742,-1364 742,-1400"/>
<text text-anchor="middle" x="715" y="-1378.6" font-family="Courier,monospace" font-size="11.00">IPack</text>
</g>
<!-- \\PG\\MSF\\Pack\\JsonPack&#45;&gt;\\PG\\MSF\\Pack\\IPack -->
<g id="edge25" class="edge"><title>\\PG\\MSF\\Pack\\JsonPack&#45;&gt;\\PG\\MSF\\Pack\\IPack</title>
<path fill="none" stroke="black" stroke-dasharray="1,5" d="M954.375,-1429.32C902.939,-1419.11 805.132,-1399.7 752.197,-1389.19"/>
<polygon fill="none" stroke="black" points="752.726,-1385.72 742.236,-1387.21 751.363,-1392.59 752.726,-1385.72"/>
</g>
<!-- \\PG\\MSF\\Pack\\MsgPack -->
<g id="node31" class="node"><title>\\PG\\MSF\\Pack\\MsgPack</title>
<polygon fill="none" stroke="black" points="1021,-1400 957,-1400 957,-1364 1021,-1364 1021,-1400"/>
<text text-anchor="middle" x="989" y="-1378.6" font-family="Courier,monospace" font-size="11.00">MsgPack</text>
</g>
<!-- \\PG\\MSF\\Pack\\MsgPack&#45;&gt;\\PG\\MSF\\Pack\\IPack -->
<g id="edge26" class="edge"><title>\\PG\\MSF\\Pack\\MsgPack&#45;&gt;\\PG\\MSF\\Pack\\IPack</title>
<path fill="none" stroke="black" stroke-dasharray="1,5" d="M956.798,-1382C906.04,-1382 805.864,-1382 752.107,-1382"/>
<polygon fill="none" stroke="black" points="752.004,-1378.5 742.003,-1382 752.003,-1385.5 752.004,-1378.5"/>
</g>
<!-- \\PG\\MSF\\Pack\\SerializePack -->
<g id="node32" class="node"><title>\\PG\\MSF\\Pack\\SerializePack</title>
<polygon fill="none" stroke="black" points="1040.5,-1346 937.5,-1346 937.5,-1310 1040.5,-1310 1040.5,-1346"/>
<text text-anchor="middle" x="989" y="-1324.6" font-family="Courier,monospace" font-size="11.00">SerializePack</text>
</g>
<!-- \\PG\\MSF\\Pack\\SerializePack&#45;&gt;\\PG\\MSF\\Pack\\IPack -->
<g id="edge27" class="edge"><title>\\PG\\MSF\\Pack\\SerializePack&#45;&gt;\\PG\\MSF\\Pack\\IPack</title>
<path fill="none" stroke="black" stroke-dasharray="1,5" d="M937.476,-1338.03C883.659,-1348.71 799.811,-1365.36 752.216,-1374.81"/>
<polygon fill="none" stroke="black" points="751.478,-1371.39 742.351,-1376.77 752.841,-1378.25 751.478,-1371.39"/>
</g>
<!-- \\PG\\MSF\\Pools\\AsynPool -->
<g id="node34" class="node"><title>\\PG\\MSF\\Pools\\AsynPool</title>
<polygon fill="none" stroke="black" points="756.5,-1076 673.5,-1076 673.5,-1040 756.5,-1040 756.5,-1076"/>
<text text-anchor="start" x="681.5" y="-1061.1" font-family="Courier,monospace" font-size="11.00">«abstract»</text>
<text text-anchor="start" x="688" y="-1048.1" font-family="Courier,monospace" font-size="11.00">AsynPool</text>
</g>
<!-- \\PG\\MSF\\Pools\\IAsynPool -->
<g id="node40" class="node"><title>\\PG\\MSF\\Pools\\IAsynPool</title>
<polygon fill="none" stroke="black" points="496,-1076 420,-1076 420,-1040 496,-1040 496,-1076"/>
<text text-anchor="middle" x="458" y="-1054.6" font-family="Courier,monospace" font-size="11.00">IAsynPool</text>
</g>
<!-- \\PG\\MSF\\Pools\\AsynPool&#45;&gt;\\PG\\MSF\\Pools\\IAsynPool -->
<g id="edge28" class="edge"><title>\\PG\\MSF\\Pools\\AsynPool&#45;&gt;\\PG\\MSF\\Pools\\IAsynPool</title>
<path fill="none" stroke="black" stroke-dasharray="1,5" d="M673.313,-1058C627.856,-1058 554.362,-1058 506.359,-1058"/>
<polygon fill="none" stroke="black" points="506.225,-1054.5 496.225,-1058 506.225,-1061.5 506.225,-1054.5"/>
</g>
<!-- \\PG\\MSF\\Pools\\AsynPoolManager -->
<g id="node35" class="node"><title>\\PG\\MSF\\Pools\\AsynPoolManager</title>
<polygon fill="none" stroke="black" points="1048,-1265 930,-1265 930,-1229 1048,-1229 1048,-1265"/>
<text text-anchor="middle" x="989" y="-1243.6" font-family="Courier,monospace" font-size="11.00">AsynPoolManager</text>
</g>
<!-- \\PG\\MSF\\Pools\\CoroutineRedisProxy -->
<g id="node36" class="node"><title>\\PG\\MSF\\Pools\\CoroutineRedisProxy</title>
<polygon fill="none" stroke="black" points="1061,-1211 917,-1211 917,-1175 1061,-1175 1061,-1211"/>
<text text-anchor="middle" x="989" y="-1189.6" font-family="Courier,monospace" font-size="11.00">CoroutineRedisProxy</text>
</g>
<!-- \\PG\\MSF\\Pools\\Miner -->
<g id="node37" class="node"><title>\\PG\\MSF\\Pools\\Miner</title>
<polygon fill="none" stroke="black" points="1016,-1157 962,-1157 962,-1121 1016,-1121 1016,-1157"/>
<text text-anchor="middle" x="989" y="-1135.6" font-family="Courier,monospace" font-size="11.00">Miner</text>
</g>
<!-- \\PG\\MSF\\Pools\\MysqlAsynPool -->
<g id="node38" class="node"><title>\\PG\\MSF\\Pools\\MysqlAsynPool</title>
<polygon fill="none" stroke="black" points="1041,-1103 937,-1103 937,-1067 1041,-1067 1041,-1103"/>
<text text-anchor="middle" x="989" y="-1081.6" font-family="Courier,monospace" font-size="11.00">MysqlAsynPool</text>
</g>
<!-- \\PG\\MSF\\Pools\\MysqlAsynPool&#45;&gt;\\PG\\MSF\\Pools\\AsynPool -->
<g id="edge29" class="edge"><title>\\PG\\MSF\\Pools\\MysqlAsynPool&#45;&gt;\\PG\\MSF\\Pools\\AsynPool</title>
<path fill="none" stroke="black" d="M936.839,-1079.92C888.134,-1075.09 815.26,-1067.85 766.707,-1063.03"/>
<polygon fill="none" stroke="black" points="767.029,-1059.55 756.733,-1062.04 766.338,-1066.51 767.029,-1059.55"/>
</g>
<!-- \\PG\\MSF\\Pools\\RedisAsynPool -->
<g id="node39" class="node"><title>\\PG\\MSF\\Pools\\RedisAsynPool</title>
<polygon fill="none" stroke="black" points="1040.5,-1049 937.5,-1049 937.5,-1013 1040.5,-1013 1040.5,-1049"/>
<text text-anchor="middle" x="989" y="-1027.6" font-family="Courier,monospace" font-size="11.00">RedisAsynPool</text>
</g>
<!-- \\PG\\MSF\\Pools\\RedisAsynPool&#45;&gt;\\PG\\MSF\\Pools\\AsynPool -->
<g id="edge30" class="edge"><title>\\PG\\MSF\\Pools\\RedisAsynPool&#45;&gt;\\PG\\MSF\\Pools\\AsynPool</title>
<path fill="none" stroke="black" d="M937.476,-1036.02C888.71,-1040.86 815.284,-1048.14 766.519,-1052.99"/>
<polygon fill="none" stroke="black" points="766.111,-1049.51 756.505,-1053.98 766.802,-1056.47 766.111,-1049.51"/>
</g>
<!-- \\PG\\MSF\\Process\\Config -->
<g id="node41" class="node"><title>\\PG\\MSF\\Process\\Config</title>
<polygon fill="none" stroke="black" points="1017,-968 961,-968 961,-932 1017,-932 1017,-968"/>
<text text-anchor="middle" x="989" y="-946.6" font-family="Courier,monospace" font-size="11.00">Config</text>
</g>
<!-- \\PG\\MSF\\Process\\ProcessBase -->
<g id="node43" class="node"><title>\\PG\\MSF\\Process\\ProcessBase</title>
<polygon fill="none" stroke="black" points="760,-914 670,-914 670,-878 760,-878 760,-914"/>
<text text-anchor="start" x="681.5" y="-899.1" font-family="Courier,monospace" font-size="11.00">«abstract»</text>
<text text-anchor="start" x="678" y="-886.1" font-family="Courier,monospace" font-size="11.00">ProcessBase</text>
</g>
<!-- \\PG\\MSF\\Process\\Config&#45;&gt;\\PG\\MSF\\Process\\ProcessBase -->
<g id="edge31" class="edge"><title>\\PG\\MSF\\Process\\Config&#45;&gt;\\PG\\MSF\\Process\\ProcessBase</title>
<path fill="none" stroke="black" d="M960.925,-944.625C916.685,-935.842 828.066,-918.248 770.436,-906.807"/>
<polygon fill="none" stroke="black" points="770.897,-903.33 760.406,-904.816 769.533,-910.196 770.897,-903.33"/>
</g>
<!-- \\PG\\MSF\\Process\\Inotify -->
<g id="node42" class="node"><title>\\PG\\MSF\\Process\\Inotify</title>
<polygon fill="none" stroke="black" points="1020.5,-914 957.5,-914 957.5,-878 1020.5,-878 1020.5,-914"/>
<text text-anchor="middle" x="989" y="-892.6" font-family="Courier,monospace" font-size="11.00">Inotify</text>
</g>
<!-- \\PG\\MSF\\Process\\Inotify&#45;&gt;\\PG\\MSF\\Process\\ProcessBase -->
<g id="edge32" class="edge"><title>\\PG\\MSF\\Process\\Inotify&#45;&gt;\\PG\\MSF\\Process\\ProcessBase</title>
<path fill="none" stroke="black" d="M957.327,-896C911.941,-896 826.232,-896 770.129,-896"/>
<polygon fill="none" stroke="black" points="770.014,-892.5 760.014,-896 770.014,-899.5 770.014,-892.5"/>
</g>
<!-- \\PG\\MSF\\Process\\Timer -->
<g id="node44" class="node"><title>\\PG\\MSF\\Process\\Timer</title>
<polygon fill="none" stroke="black" points="1016,-860 962,-860 962,-824 1016,-824 1016,-860"/>
<text text-anchor="middle" x="989" y="-838.6" font-family="Courier,monospace" font-size="11.00">Timer</text>
</g>
<!-- \\PG\\MSF\\Process\\Timer&#45;&gt;\\PG\\MSF\\Process\\ProcessBase -->
<g id="edge33" class="edge"><title>\\PG\\MSF\\Process\\Timer&#45;&gt;\\PG\\MSF\\Process\\ProcessBase</title>
<path fill="none" stroke="black" d="M961.919,-847.178C918.017,-855.894 828.469,-873.672 770.404,-885.199"/>
<polygon fill="none" stroke="black" points="769.429,-881.824 760.302,-887.205 770.792,-888.69 769.429,-881.824"/>
</g>
<!-- \\PG\\MSF\\Proxy\\RedisProxyCluster -->
<g id="node45" class="node"><title>\\PG\\MSF\\Proxy\\RedisProxyCluster</title>
<polygon fill="none" stroke="black" points="1054,-671 924,-671 924,-635 1054,-635 1054,-671"/>
<text text-anchor="middle" x="989" y="-649.6" font-family="Courier,monospace" font-size="11.00">RedisProxyCluster</text>
</g>
<!-- \\PG\\MSF\\Proxy\\IProxy -->
<g id="node48" class="node"><title>\\PG\\MSF\\Proxy\\IProxy</title>
<polygon fill="none" stroke="black" points="743,-725 687,-725 687,-689 743,-689 743,-725"/>
<text text-anchor="middle" x="715" y="-703.6" font-family="Courier,monospace" font-size="11.00">IProxy</text>
</g>
<!-- \\PG\\MSF\\Proxy\\RedisProxyCluster&#45;&gt;\\PG\\MSF\\Proxy\\IProxy -->
<g id="edge35" class="edge"><title>\\PG\\MSF\\Proxy\\RedisProxyCluster&#45;&gt;\\PG\\MSF\\Proxy\\IProxy</title>
<path fill="none" stroke="black" stroke-dasharray="1,5" d="M923.884,-665.729C870.666,-676.294 796.841,-690.951 752.991,-699.656"/>
<polygon fill="none" stroke="black" points="752.175,-696.25 743.048,-701.63 753.539,-703.116 752.175,-696.25"/>
</g>
<!-- \\Flexihash\\Flexihash -->
<g id="node65" class="node"><title>\\Flexihash\\Flexihash</title>
<ellipse fill="none" stroke="black" cx="715" cy="-72" rx="89.78" ry="18"/>
<text text-anchor="middle" x="715" y="-67.4" font-family="Times,serif" font-size="14.00" fill="gray">\Flexihash\Flexihash</text>
</g>
<!-- \\PG\\MSF\\Proxy\\RedisProxyCluster&#45;&gt;\\Flexihash\\Flexihash -->
<g id="edge34" class="edge"><title>\\PG\\MSF\\Proxy\\RedisProxyCluster&#45;&gt;\\Flexihash\\Flexihash</title>
<path fill="none" stroke="black" d="M923.91,-635.41C918.648,-631.983 913.875,-627.89 910,-623 764.005,-438.754 997.336,-271.839 838,-99 830.514,-90.8794 821.18,-84.9209 811.029,-80.5857"/>
<polygon fill="none" stroke="black" points="812.099,-77.2498 801.507,-77.0454 809.66,-83.811 812.099,-77.2498"/>
</g>
<!-- \\PG\\MSF\\Proxy\\RedisProxyFactory -->
<g id="node46" class="node"><title>\\PG\\MSF\\Proxy\\RedisProxyFactory</title>
<polygon fill="none" stroke="black" points="1054,-725 924,-725 924,-689 1054,-689 1054,-725"/>
<text text-anchor="middle" x="989" y="-703.6" font-family="Courier,monospace" font-size="11.00">RedisProxyFactory</text>
</g>
<!-- \\PG\\MSF\\Proxy\\RedisProxyMasterSlave -->
<g id="node47" class="node"><title>\\PG\\MSF\\Proxy\\RedisProxyMasterSlave</title>
<polygon fill="none" stroke="black" points="1067.5,-779 910.5,-779 910.5,-743 1067.5,-743 1067.5,-779"/>
<text text-anchor="middle" x="989" y="-757.6" font-family="Courier,monospace" font-size="11.00">RedisProxyMasterSlave</text>
</g>
<!-- \\PG\\MSF\\Proxy\\RedisProxyMasterSlave&#45;&gt;\\PG\\MSF\\Proxy\\IProxy -->
<g id="edge36" class="edge"><title>\\PG\\MSF\\Proxy\\RedisProxyMasterSlave&#45;&gt;\\PG\\MSF\\Proxy\\IProxy</title>
<path fill="none" stroke="black" stroke-dasharray="1,5" d="M910.42,-745.598C858.851,-735.36 793.447,-722.376 753.174,-714.38"/>
<polygon fill="none" stroke="black" points="753.744,-710.925 743.254,-712.411 752.381,-717.791 753.744,-710.925"/>
</g>
<!-- \\PG\\MSF\\Rest\\Controller&#45;&gt;\\PG\\MSF\\Controllers\\Controller -->
<g id="edge37" class="edge"><title>\\PG\\MSF\\Rest\\Controller&#45;&gt;\\PG\\MSF\\Controllers\\Controller</title>
<path fill="none" stroke="black" d="M499.623,-2458.52C521.411,-2454.34 546.334,-2445.32 560,-2426 608.393,-2357.6 529.674,-2262.6 485.2,-2217.6"/>
<polygon fill="none" stroke="black" points="487.418,-2214.87 477.856,-2210.31 482.485,-2219.84 487.418,-2214.87"/>
</g>
<!-- \\PG\\MSF\\Rest\\Serializer -->
<g id="node50" class="node"><title>\\PG\\MSF\\Rest\\Serializer</title>
<polygon fill="none" stroke="black" points="499.5,-2426 416.5,-2426 416.5,-2390 499.5,-2390 499.5,-2426"/>
<text text-anchor="middle" x="458" y="-2404.6" font-family="Courier,monospace" font-size="11.00">Serializer</text>
</g>
<!-- \\PG\\MSF\\Route\\NormalRoute -->
<g id="node51" class="node"><title>\\PG\\MSF\\Route\\NormalRoute</title>
<polygon fill="none" stroke="black" points="760,-590 670,-590 670,-554 760,-554 760,-590"/>
<text text-anchor="middle" x="715" y="-568.6" font-family="Courier,monospace" font-size="11.00">NormalRoute</text>
</g>
<!-- \\PG\\MSF\\Route\\IRoute -->
<g id="node53" class="node"><title>\\PG\\MSF\\Route\\IRoute</title>
<polygon fill="none" stroke="black" points="486,-590 430,-590 430,-554 486,-554 486,-590"/>
<text text-anchor="middle" x="458" y="-568.6" font-family="Courier,monospace" font-size="11.00">IRoute</text>
</g>
<!-- \\PG\\MSF\\Route\\NormalRoute&#45;&gt;\\PG\\MSF\\Route\\IRoute -->
<g id="edge38" class="edge"><title>\\PG\\MSF\\Route\\NormalRoute&#45;&gt;\\PG\\MSF\\Route\\IRoute</title>
<path fill="none" stroke="black" stroke-dasharray="1,5" d="M669.874,-572C620.81,-572 542.415,-572 496.297,-572"/>
<polygon fill="none" stroke="black" points="496.137,-568.5 486.137,-572 496.137,-575.5 496.137,-568.5"/>
</g>
<!-- \\PG\\MSF\\Route\\RestRoute -->
<g id="node52" class="node"><title>\\PG\\MSF\\Route\\RestRoute</title>
<polygon fill="none" stroke="black" points="1027,-590 951,-590 951,-554 1027,-554 1027,-590"/>
<text text-anchor="middle" x="989" y="-568.6" font-family="Courier,monospace" font-size="11.00">RestRoute</text>
</g>
<!-- \\PG\\MSF\\Route\\RestRoute&#45;&gt;\\PG\\MSF\\Route\\NormalRoute -->
<g id="edge39" class="edge"><title>\\PG\\MSF\\Route\\RestRoute&#45;&gt;\\PG\\MSF\\Route\\NormalRoute</title>
<path fill="none" stroke="black" d="M950.75,-572C904.237,-572 824.288,-572 770.791,-572"/>
<polygon fill="none" stroke="black" points="770.462,-568.5 760.462,-572 770.462,-575.5 770.462,-568.5"/>
</g>
<!-- \\PG\\MSF\\Tasks\\MongoDbTask -->
<g id="node54" class="node"><title>\\PG\\MSF\\Tasks\\MongoDbTask</title>
<polygon fill="none" stroke="black" points="1034.5,-509 943.5,-509 943.5,-473 1034.5,-473 1034.5,-509"/>
<text text-anchor="middle" x="989" y="-487.6" font-family="Courier,monospace" font-size="11.00">MongoDbTask</text>
</g>
<!-- \\PG\\MSF\\Tasks\\Task -->
<g id="node55" class="node"><title>\\PG\\MSF\\Tasks\\Task</title>
<polygon fill="none" stroke="black" points="742,-509 688,-509 688,-473 742,-473 742,-509"/>
<text text-anchor="middle" x="715" y="-487.6" font-family="Courier,monospace" font-size="11.00">Task</text>
</g>
<!-- \\PG\\MSF\\Tasks\\MongoDbTask&#45;&gt;\\PG\\MSF\\Tasks\\Task -->
<g id="edge41" class="edge"><title>\\PG\\MSF\\Tasks\\MongoDbTask&#45;&gt;\\PG\\MSF\\Tasks\\Task</title>
<path fill="none" stroke="black" d="M943.389,-491C890.033,-491 801.747,-491 752.346,-491"/>
<polygon fill="none" stroke="black" points="752.129,-487.5 742.129,-491 752.129,-494.5 752.129,-487.5"/>
</g>
<!-- \\PG\\MSF\\Tasks\\TaskProxy -->
<g id="node56" class="node"><title>\\PG\\MSF\\Tasks\\TaskProxy</title>
<polygon fill="none" stroke="black" points="496,-509 420,-509 420,-473 496,-473 496,-509"/>
<text text-anchor="middle" x="458" y="-487.6" font-family="Courier,monospace" font-size="11.00">TaskProxy</text>
</g>
<!-- \\PG\\MSF\\Tasks\\Task&#45;&gt;\\PG\\MSF\\Tasks\\TaskProxy -->
<g id="edge42" class="edge"><title>\\PG\\MSF\\Tasks\\Task&#45;&gt;\\PG\\MSF\\Tasks\\TaskProxy</title>
<path fill="none" stroke="black" d="M687.671,-491C644.963,-491 559.986,-491 506.508,-491"/>
<polygon fill="none" stroke="black" points="506.254,-487.5 496.254,-491 506.254,-494.5 506.254,-487.5"/>
</g>
<!-- \\PG\\MSF\\Tasks\\TaskProxy&#45;&gt;\\PG\\MSF\\Base\\Core -->
<g id="edge43" class="edge"><title>\\PG\\MSF\\Tasks\\TaskProxy&#45;&gt;\\PG\\MSF\\Base\\Core</title>
<path fill="none" stroke="black" d="M419.763,-476.705C380.883,-461.78 320.326,-438.533 281.938,-423.796"/>
<polygon fill="none" stroke="black" points="282.799,-420.378 272.209,-420.061 280.29,-426.913 282.799,-420.378"/>
</g>
<!-- \\PG\\MSF\\HttpServer -->
<g id="node57" class="node"><title>\\PG\\MSF\\HttpServer</title>
<polygon fill="none" stroke="black" points="499.5,-212 416.5,-212 416.5,-176 499.5,-176 499.5,-212"/>
<text text-anchor="start" x="424.5" y="-197.1" font-family="Courier,monospace" font-size="11.00">«abstract»</text>
<text text-anchor="start" x="424.5" y="-184.1" font-family="Courier,monospace" font-size="11.00">HttpServer</text>
</g>
<!-- \\PG\\MSF\\Server -->
<g id="node61" class="node"><title>\\PG\\MSF\\Server</title>
<polygon fill="none" stroke="black" points="286.5,-213 203.5,-213 203.5,-177 286.5,-177 286.5,-213"/>
<text text-anchor="start" x="211.5" y="-198.1" font-family="Courier,monospace" font-size="11.00">«abstract»</text>
<text text-anchor="start" x="225" y="-185.1" font-family="Courier,monospace" font-size="11.00">Server</text>
</g>
<!-- \\PG\\MSF\\HttpServer&#45;&gt;\\PG\\MSF\\Server -->
<g id="edge21" class="edge"><title>\\PG\\MSF\\HttpServer&#45;&gt;\\PG\\MSF\\Server</title>
<path fill="none" stroke="black" d="M416.317,-194.193C382.311,-194.354 333.635,-194.585 297.022,-194.758"/>
<polygon fill="none" stroke="black" points="296.541,-191.26 286.558,-194.808 296.575,-198.26 296.541,-191.26"/>
</g>
<!-- \\PG\\MSF\\Marco -->
<g id="node58" class="node"><title>\\PG\\MSF\\Marco</title>
<polygon fill="none" stroke="black" points="1016,-293 962,-293 962,-257 1016,-257 1016,-293"/>
<text text-anchor="middle" x="989" y="-271.6" font-family="Courier,monospace" font-size="11.00">Marco</text>
</g>
<!-- \\PG\\MSF\\MSFCli -->
<g id="node59" class="node"><title>\\PG\\MSF\\MSFCli</title>
<polygon fill="none" stroke="black" points="1017.5,-347 960.5,-347 960.5,-311 1017.5,-311 1017.5,-347"/>
<text text-anchor="middle" x="989" y="-325.6" font-family="Courier,monospace" font-size="11.00">MSFCli</text>
</g>
<!-- \\PG\\MSF\\MSFServer -->
<g id="node60" class="node"><title>\\PG\\MSF\\MSFServer</title>
<polygon fill="none" stroke="black" points="756.5,-279 673.5,-279 673.5,-243 756.5,-243 756.5,-279"/>
<text text-anchor="start" x="681.5" y="-264.1" font-family="Courier,monospace" font-size="11.00">«abstract»</text>
<text text-anchor="start" x="684.5" y="-251.1" font-family="Courier,monospace" font-size="11.00">MSFServer</text>
</g>
<!-- \\PG\\MSF\\MSFCli&#45;&gt;\\PG\\MSF\\MSFServer -->
<g id="edge23" class="edge"><title>\\PG\\MSF\\MSFCli&#45;&gt;\\PG\\MSF\\MSFServer</title>
<path fill="none" stroke="black" d="M960.422,-322.106C915.065,-310.766 824.049,-288.012 766.787,-273.697"/>
<polygon fill="none" stroke="black" points="767.405,-270.244 756.854,-271.214 765.707,-277.035 767.405,-270.244"/>
</g>
<!-- \\PG\\MSF\\MSFServer&#45;&gt;\\PG\\MSF\\HttpServer -->
<g id="edge24" class="edge"><title>\\PG\\MSF\\MSFServer&#45;&gt;\\PG\\MSF\\HttpServer</title>
<path fill="none" stroke="black" d="M673.313,-250.31C628.81,-238.617 557.437,-219.864 509.417,-207.247"/>
<polygon fill="none" stroke="black" points="510.104,-203.809 499.543,-204.652 508.325,-210.579 510.104,-203.809"/>
</g>
<!-- \\PG\\MSF\\Server&#45;&gt;\\PG\\MSF\\Base\\Child -->
<g id="edge40" class="edge"><title>\\PG\\MSF\\Server&#45;&gt;\\PG\\MSF\\Base\\Child</title>
<path fill="none" stroke="black" d="M203.274,-202.409C190.683,-205.876 177.193,-210.871 166,-218 131.67,-239.866 102.318,-277.144 84.9182,-302.406"/>
<polygon fill="none" stroke="black" points="81.9521,-300.545 79.2736,-310.796 87.7599,-304.453 81.9521,-300.545"/>
</g>
</g>
</svg>
